<?xml version="1.0" encoding="UTF-8"?>
<svg xmlns="http://www.w3.org/2000/svg" viewBox="0 0 1080.25 1080.25">
  <defs>
    <style>
      .cls-1 {
        fill: none;
        stroke: #000;
        stroke-miterlimit: 10;
        stroke-width: .25px;
      }
    </style>
  </defs>
  <g id="Layer_1" data-name="Layer 1">
    <rect x="337.58" y=".18" width="202.55" height="67.51" transform="translate(877.71 67.87) rotate(180)"/>
    <rect x="-168.79" y="506.51" width="405.09" height="67.51" transform="translate(-506.51 574.02) rotate(-90)"/>
    <rect x="202.55" y="67.69" width="135.03" height="67.51" transform="translate(540.13 202.88) rotate(180)"/>
    <rect x="67.52" y="202.7" width="67.51" height="135.01" transform="translate(202.55 540.42) rotate(180)"/>
    <rect x="135.03" y="135.2" width="67.51" height="67.51" transform="translate(337.57 337.91) rotate(180)"/>
    <rect x="135.03" y="877.5" width="67.51" height="67.51" transform="translate(337.57 1822.51) rotate(180)"/>
    <rect x="67.52" y="742.63" width="67.51" height="134.88" transform="translate(202.55 1620.13) rotate(180)"/>
    <rect x="337.58" y="1012.52" width="202.55" height="67.51" transform="translate(877.71 2092.54) rotate(180)"/>
    <rect x="202.55" y="945.01" width="135.03" height="67.51" transform="translate(540.13 1957.53) rotate(180)"/>
    <rect x="-168.79" y="506.51" width="405.09" height="67.51" transform="translate(-506.51 574.02) rotate(-90)"/>
    <rect x="540.12" y=".18" width="202.55" height="67.51"/>
    <rect x="843.95" y="506.51" width="405.09" height="67.51" transform="translate(506.23 1586.76) rotate(-90)"/>
    <rect x="742.67" y="67.69" width="135.03" height="67.51"/>
    <rect x="945.22" y="202.7" width="67.51" height="135.01"/>
    <rect x="877.71" y="135.2" width="67.51" height="67.51"/>
    <rect x="877.71" y="877.5" width="67.51" height="67.51"/>
    <rect x="945.22" y="742.63" width="67.51" height="134.88"/>
    <rect x="540.12" y="1012.52" width="202.55" height="67.51"/>
    <rect x="742.68" y="945.01" width="135.03" height="67.51"/>
    <rect x="843.95" y="506.51" width="405.09" height="67.51" transform="translate(506.23 1586.76) rotate(-90)"/>
    <rect x="405.09" y="202.7" width="67.37" height="67.37"/>
    <rect x="405.09" y="540.17" width="270.06" height="67.37"/>
    <rect x="472.69" y="135.27" width="134.95" height="67.37"/>
    <rect x="607.72" y="202.7" width="67.37" height="67.37"/>
    <rect x="337.76" y="270.21" width="67.69" height="607.29"/>
    <rect x="675.16" y="270.21" width="67.69" height="607.29"/>
  </g>
  <g id="Layer_2" data-name="Layer 2">
    <g>
      <rect class="cls-1" x="0" y=".04" width="1080.25" height="1080.12"/>
      <line class="cls-1" x1="0" y1="1012.66" x2="1080.25" y2="1012.66"/>
      <line class="cls-1" x1="0" y1="945.15" x2="1080.25" y2="945.15"/>
      <line class="cls-1" x1="0" y1="877.64" x2="1080.25" y2="877.64"/>
      <line class="cls-1" x1="0" y1="810.13" x2="1080.25" y2="810.13"/>
      <line class="cls-1" x1="0" y1="742.63" x2="1080.25" y2="742.63"/>
      <line class="cls-1" x1="0" y1="675.12" x2="1080.25" y2="675.12"/>
      <line class="cls-1" x1="0" y1="607.61" x2="1080.25" y2="607.61"/>
      <line class="cls-1" x1="0" y1="540.1" x2="1080.25" y2="540.1"/>
      <line class="cls-1" x1="0" y1="472.6" x2="1080.25" y2="472.6"/>
      <line class="cls-1" x1="0" y1="405.09" x2="1080.25" y2="405.09"/>
      <line class="cls-1" x1="0" y1="337.58" x2="1080.25" y2="337.58"/>
      <line class="cls-1" x1="0" y1="270.07" x2="1080.25" y2="270.07"/>
      <line class="cls-1" x1="0" y1="202.56" x2="1080.25" y2="202.56"/>
      <line class="cls-1" x1="0" y1="135.06" x2="1080.25" y2="135.06"/>
      <line class="cls-1" x1="0" y1="67.55" x2="1080.25" y2="67.55"/>
      <line class="cls-1" x1="1012.73" y1=".04" x2="1012.73" y2="1080.17"/>
      <line class="cls-1" x1="945.22" y1=".04" x2="945.22" y2="1080.17"/>
      <line class="cls-1" x1="877.7" y1=".04" x2="877.7" y2="1080.17"/>
      <line class="cls-1" x1="810.19" y1=".04" x2="810.19" y2="1080.17"/>
      <line class="cls-1" x1="742.67" y1=".04" x2="742.67" y2="1080.17"/>
      <line class="cls-1" x1="675.16" y1=".04" x2="675.16" y2="1080.17"/>
      <line class="cls-1" x1="607.64" y1=".04" x2="607.64" y2="1080.17"/>
      <line class="cls-1" x1="540.12" y1=".04" x2="540.12" y2="1080.17"/>
      <line class="cls-1" x1="472.61" y1=".04" x2="472.61" y2="1080.17"/>
      <line class="cls-1" x1="405.09" y1=".04" x2="405.09" y2="1080.17"/>
      <line class="cls-1" x1="337.58" y1=".04" x2="337.58" y2="1080.17"/>
      <line class="cls-1" x1="270.06" y1=".04" x2="270.06" y2="1080.17"/>
      <line class="cls-1" x1="202.55" y1=".04" x2="202.55" y2="1080.17"/>
      <line class="cls-1" x1="135.03" y1=".04" x2="135.03" y2="1080.17"/>
      <line class="cls-1" x1="67.52" y1=".04" x2="67.52" y2="1080.17"/>
    </g>
  </g>
</svg>