<svg xmlns="http://www.w3.org/2000/svg" viewBox="0 0 1080.25 1080.25">
  <rect x="337.58" y=".18" width="202.55" height="67.51" transform="translate(877.71 67.87) rotate(180)"/>
  <rect x="-168.79" y="506.51" width="405.09" height="67.51" transform="translate(-506.51 574.02) rotate(-90)"/>
  <rect x="202.55" y="67.69" width="135.03" height="67.51" transform="translate(540.13 202.88) rotate(180)"/>
  <rect x="67.52" y="202.7" width="67.51" height="135.01" transform="translate(202.55 540.42) rotate(180)"/>
  <rect x="135.03" y="135.2" width="67.51" height="67.51" transform="translate(337.57 337.91) rotate(180)"/>
  <rect x="135.03" y="877.5" width="67.51" height="67.51" transform="translate(337.57 1822.51) rotate(180)"/>
  <rect x="67.52" y="742.63" width="67.51" height="134.88" transform="translate(202.55 1620.13) rotate(180)"/>
  <rect x="337.58" y="1012.52" width="202.55" height="67.51" transform="translate(877.71 2092.54) rotate(180)"/>
  <rect x="202.55" y="945.01" width="135.03" height="67.51" transform="translate(540.13 1957.53) rotate(180)"/>
  <rect x="540.12" y=".18" width="202.55" height="67.51"/>
  <rect x="843.95" y="506.51" width="405.09" height="67.51" transform="translate(506.23 1586.76) rotate(-90)"/>
  <rect x="742.67" y="67.69" width="135.03" height="67.51"/>
  <rect x="945.22" y="202.7" width="67.51" height="135.01"/>
  <rect x="877.71" y="135.2" width="67.51" height="67.51"/>
  <rect x="877.71" y="877.5" width="67.51" height="67.51"/>
  <rect x="945.22" y="742.63" width="67.51" height="134.88"/>
  <rect x="540.12" y="1012.52" width="202.55" height="67.51"/>
  <rect x="742.68" y="945.01" width="135.03" height="67.51"/>
  <rect x="405.09" y="472.6" width="202.55" height="67.37"/>
  <rect x="675.29" y="540.14" width="67.37" height="67.37"/>
  <rect x="675.29" y="742.56" width="67.37" height="67.37"/>
  <rect x="675.29" y="270.07" width="67.37" height="202.39"/>
  <rect x="405.45" y="810.06" width="269.64" height="67.37"/>
  <rect x="405.17" y="135.27" width="269.92" height="67.37"/>
  <rect x="675.33" y="202.71" width="67.37" height="67.37"/>
  <rect x="607.73" y="472.6" width="67.37" height="67.37"/>
  <rect x="337.76" y="202.56" width="67.69" height="607.5"/>
  <rect x="742.72" y="607.77" width="67.69" height="134.78"/>
</svg>
