<?xml version="1.0" encoding="UTF-8"?>
<svg xmlns="http://www.w3.org/2000/svg" viewBox="0 0 1216.75 1080.25">
  <defs>
    <style>
      .cls-1 {
        fill: none;
        stroke: #000;
        stroke-miterlimit: 10;
        stroke-width: .25px;
      }
    </style>
  </defs>
  <g id="Layer_1" data-name="Layer 1">
    <rect x="540.86" y="675.08" width="135.02" height="135.02"/>
    <rect x="473.34" y="472.56" width="270.06" height="202.52"/>
    <rect x="473.34" y=".04" width="270.06" height="202.52"/>
    <rect x="405.83" y="270.04" width="405.09" height="202.52"/>
    <rect x="338.31" y="67.5" width="540.13" height="202.52"/>
    <rect x="535.58" y="877.64" width="135.03" height="202.48"/>
    <rect x="468.06" y="945.15" width="270.06" height="67.51"/>
    <rect x="0" y="135.06" width="134.3" height="810.09"/>
    <rect x="134.3" y=".2" width="136.5" height="134.85"/>
    <rect x="134.3" y="945.23" width="136.5" height="134.85"/>
    <rect x="1082.45" y="135.06" width="134.3" height="810.09" transform="translate(2299.2 1080.21) rotate(180)"/>
    <rect x="945.95" y=".2" width="136.5" height="134.85" transform="translate(2028.41 135.26) rotate(180)"/>
    <rect x="945.95" y="945.23" width="136.5" height="134.85" transform="translate(2028.41 2025.32) rotate(180)"/>
  </g>
  <g id="Layer_2" data-name="Layer 2">
    <g>
      <rect class="cls-1" x="68.25" y=".04" width="1080.25" height="1080.12"/>
      <line class="cls-1" x1="68.25" y1="1012.66" x2="1148.5" y2="1012.66"/>
      <line class="cls-1" x1="68.25" y1="945.15" x2="1148.5" y2="945.15"/>
      <line class="cls-1" x1="68.25" y1="877.64" x2="1148.5" y2="877.64"/>
      <line class="cls-1" x1="68.25" y1="810.13" x2="1148.5" y2="810.13"/>
      <line class="cls-1" x1="68.25" y1="742.63" x2="1148.5" y2="742.63"/>
      <line class="cls-1" x1="68.25" y1="675.12" x2="1148.5" y2="675.12"/>
      <line class="cls-1" x1="68.25" y1="607.61" x2="1148.5" y2="607.61"/>
      <line class="cls-1" x1="68.25" y1="540.1" x2="1148.5" y2="540.1"/>
      <line class="cls-1" x1="68.25" y1="472.6" x2="1148.5" y2="472.6"/>
      <line class="cls-1" x1="68.25" y1="405.09" x2="1148.5" y2="405.09"/>
      <line class="cls-1" x1="68.25" y1="337.58" x2="1148.5" y2="337.58"/>
      <line class="cls-1" x1="68.25" y1="270.07" x2="1148.5" y2="270.07"/>
      <line class="cls-1" x1="68.25" y1="202.56" x2="1148.5" y2="202.56"/>
      <line class="cls-1" x1="68.25" y1="135.06" x2="1148.5" y2="135.06"/>
      <line class="cls-1" x1="68.25" y1="67.55" x2="1148.5" y2="67.55"/>
      <line class="cls-1" x1="1080.98" y1=".04" x2="1080.98" y2="1080.17"/>
      <line class="cls-1" x1="1013.47" y1=".04" x2="1013.47" y2="1080.17"/>
      <line class="cls-1" x1="945.95" y1=".04" x2="945.95" y2="1080.17"/>
      <line class="cls-1" x1="878.44" y1=".04" x2="878.44" y2="1080.17"/>
      <line class="cls-1" x1="810.92" y1=".04" x2="810.92" y2="1080.17"/>
      <line class="cls-1" x1="743.41" y1=".04" x2="743.41" y2="1080.17"/>
      <line class="cls-1" x1="675.89" y1=".04" x2="675.89" y2="1080.17"/>
      <line class="cls-1" x1="608.38" y1=".04" x2="608.38" y2="1080.17"/>
      <line class="cls-1" x1="540.86" y1=".04" x2="540.86" y2="1080.17"/>
      <line class="cls-1" x1="473.34" y1=".04" x2="473.34" y2="1080.17"/>
      <line class="cls-1" x1="405.83" y1=".04" x2="405.83" y2="1080.17"/>
      <line class="cls-1" x1="338.31" y1=".04" x2="338.31" y2="1080.17"/>
      <line class="cls-1" x1="270.8" y1=".04" x2="270.8" y2="1080.17"/>
      <line class="cls-1" x1="203.28" y1=".04" x2="203.28" y2="1080.17"/>
      <line class="cls-1" x1="135.77" y1=".04" x2="135.77" y2="1080.17"/>
    </g>
  </g>
</svg>