<?xml version="1.0" encoding="UTF-8"?>
<svg id="Layer_1" data-name="Layer 1" xmlns="http://www.w3.org/2000/svg" viewBox="0 0 18.65 18.64">
  <defs>
    <style>
      .cls-1 {
        fill: #ff8956;
      }
    </style>
  </defs>
  <rect class="cls-1" x="5.83" y="0" width="3.5" height="1.17" transform="translate(15.15 1.17) rotate(180)"/>
  <rect class="cls-1" x="-2.91" y="8.74" width="6.99" height="1.17" transform="translate(-8.74 9.91) rotate(-90)"/>
  <rect class="cls-1" x="3.5" y="1.17" width="2.33" height="1.17" transform="translate(9.33 3.5) rotate(180)"/>
  <rect class="cls-1" x="1.17" y="3.5" width="1.17" height="2.33" transform="translate(3.5 9.32) rotate(180)"/>
  <rect class="cls-1" x="2.33" y="2.33" width="1.17" height="1.17" transform="translate(5.83 5.83) rotate(180)"/>
  <rect class="cls-1" x="2.33" y="15.15" width="1.17" height="1.17" transform="translate(5.83 31.46) rotate(180)"/>
  <rect class="cls-1" x="1.17" y="12.82" width="1.17" height="2.33" transform="translate(3.5 27.97) rotate(180)"/>
  <rect class="cls-1" x="5.83" y="17.48" width="3.5" height="1.17" transform="translate(15.15 36.12) rotate(180)"/>
  <rect class="cls-1" x="3.5" y="16.31" width="2.33" height="1.17" transform="translate(9.33 33.79) rotate(180)"/>
  <rect class="cls-1" x="-2.91" y="8.74" width="6.99" height="1.17" transform="translate(-8.74 9.91) rotate(-90)"/>
  <rect class="cls-1" x="9.33" y="0" width="3.5" height="1.17"/>
  <rect class="cls-1" x="14.57" y="8.74" width="6.99" height="1.17" transform="translate(8.74 27.39) rotate(-90)"/>
  <rect class="cls-1" x="12.82" y="1.17" width="2.33" height="1.17"/>
  <rect class="cls-1" x="16.32" y="3.5" width="1.17" height="2.33"/>
  <rect class="cls-1" x="15.15" y="2.33" width="1.17" height="1.17"/>
  <rect class="cls-1" x="15.15" y="15.15" width="1.17" height="1.17"/>
  <rect class="cls-1" x="16.32" y="12.82" width="1.17" height="2.33"/>
  <rect class="cls-1" x="9.33" y="17.48" width="3.5" height="1.17"/>
  <rect class="cls-1" x="12.82" y="16.31" width="2.33" height="1.17"/>
  <rect class="cls-1" x="14.57" y="8.74" width="6.99" height="1.17" transform="translate(8.74 27.39) rotate(-90)"/>
  <rect class="cls-1" x="8.16" y="2.33" width="2.33" height="13.98"/>
  <rect class="cls-1" x="6.99" y="13.98" width="4.67" height="1.16"/>
  <rect class="cls-1" x="5.83" y="12.82" width="7" height="1.16"/>
  <rect class="cls-1" x="5.82" y="11.65" width="1.17" height="1.17"/>
  <rect class="cls-1" x="11.66" y="11.65" width="1.17" height="1.17"/>
</svg>