<?xml version="1.0" encoding="UTF-8"?>
<svg id="Layer_1" data-name="Layer 1" xmlns="http://www.w3.org/2000/svg" viewBox="0 0 1080.25 1080.25">
  <rect x="0" y=".18" width="1080.25" height="67.51" transform="translate(1080.25 67.87) rotate(180)"/>
  <rect x="-168.79" y="506.51" width="405.09" height="67.51" transform="translate(-506.51 574.02) rotate(-90)"/>
  <rect x="337.58" y="1012.52" width="202.55" height="67.51" transform="translate(877.71 2092.54) rotate(180)"/>
  <rect x="-472.41" y="540.1" width="1012.34" height="67.51" transform="translate(-540.1 607.61) rotate(-90)"/>
  <rect x="540.33" y="540.1" width="1012.34" height="67.51" transform="translate(472.64 1620.35) rotate(-90)"/>
  <rect x="540.12" y=".18" width="202.55" height="67.51"/>
  <rect x="843.95" y="506.51" width="405.09" height="67.51" transform="translate(506.23 1586.76) rotate(-90)"/>
  <rect x="0" y="1012.52" width="1080.25" height="67.51"/>
  <rect x="843.95" y="506.51" width="405.09" height="67.51" transform="translate(506.23 1586.76) rotate(-90)"/>
  <rect x="202.66" y="202.63" width="269.95" height="67.59"/>
  <rect x="270.09" y="472.6" width="202.51" height="67.59"/>
  <rect x="202.54" y="202.63" width="67.51" height="675.01"/>
  <rect x="607.64" y="202.63" width="202.55" height="67.59"/>
  <rect x="607.64" y="472.6" width="202.55" height="67.59"/>
  <rect x="540.13" y="270.23" width="67.52" height="202.37"/>
  <rect x="742.68" y="742.75" width="67.52" height="67.52"/>
  <rect x="607.64" y="810.22" width="135.08" height="67.52"/>
  <rect x="810.19" y="270.23" width="67.52" height="472.4"/>
</svg>