<?xml version="1.0" encoding="UTF-8"?>
<svg id="Layer_1" data-name="Layer 1" xmlns="http://www.w3.org/2000/svg" viewBox="0 0 1080.25 1080.25">
  <rect x="405.07" y="202.71" width="67.59" height="674.93"/>
  <rect x="742.67" y="202.71" width="67.59" height="674.93"/>
  <rect x="337.58" y=".18" width="202.55" height="67.51" transform="translate(877.71 67.87) rotate(180)"/>
  <rect x="-168.79" y="506.51" width="405.09" height="67.51" transform="translate(-506.51 574.02) rotate(-90)"/>
  <rect x="202.55" y="67.69" width="135.03" height="67.51" transform="translate(540.13 202.88) rotate(180)"/>
  <rect x="67.52" y="202.7" width="67.51" height="135.01" transform="translate(202.55 540.42) rotate(180)"/>
  <rect x="135.03" y="135.2" width="67.51" height="67.51" transform="translate(337.57 337.91) rotate(180)"/>
  <rect x="67.52" y="1012.52" width="472.61" height="67.51" transform="translate(607.65 2092.54) rotate(180)"/>
  <rect x="-303.71" y="641.43" width="674.94" height="67.51" transform="translate(-641.43 708.95) rotate(-90)"/>
  <rect x="574" y="506.42" width="944.97" height="67.51" transform="translate(506.32 1586.66) rotate(-90)"/>
  <rect x="540.12" y=".18" width="540.12" height="67.51"/>
  <rect x="540.12" y="1012.52" width="540.12" height="67.51"/>
  <rect x="405.07" y="810.13" width="270.1" height="67.51"/>
  <rect x="641.44" y="202.71" width="270.06" height="67.36"/>
</svg>