<?xml version="1.0" encoding="UTF-8"?>
<svg id="Layer_1" data-name="Layer 1" xmlns="http://www.w3.org/2000/svg" viewBox="0 0 1080.25 1080.25">
  <g>
    <rect x="877.74" y="472.56" width="67.47" height="134.94"/>
    <rect x="810.14" y="607.41" width="67.54" height="67.63"/>
    <polygon points="877.68 405.01 877.68 472.64 810.16 472.64 810.16 405.21 742.73 405.21 742.73 337.71 675.21 337.71 675.21 270.07 675.22 270.07 742.74 270.07 742.74 337.58 810.26 337.58 810.26 405.01 877.68 405.01"/>
    <rect x="742.72" y="675.12" width="67.54" height="67.63"/>
    <rect x="675.3" y="742.83" width="67.55" height="67.63"/>
    <polygon points="675.24 810.14 675.24 877.77 607.72 877.77 607.72 945.28 540.21 945.28 540.21 1012.78 472.69 1012.78 337.64 1012.78 337.64 945.29 337.64 945.15 472.67 945.15 540.18 945.15 540.18 877.64 607.7 877.64 607.7 810.14 675.24 810.14"/>
    <polygon points="675.22 202.44 675.22 270.07 675.21 270.07 607.7 270.07 607.7 202.69 540.18 202.69 540.18 135.18 472.68 135.18 337.64 135.18 337.64 945.15 337.64 945.29 270.12 945.29 270.12 135.07 337.64 135.07 337.64 67.55 472.67 67.55 540.19 67.55 540.19 135.06 607.71 135.06 607.71 202.44 675.22 202.44"/>
  </g>
  <rect x="337.64" y="135.18" width="202.54" height="809.97"/>
  <rect x="540.19" y="202.69" width="67.52" height="675.08"/>
  <rect x="607.7" y="472.56" width="269.98" height="134.94"/>
  <rect x="607.7" y="270.07" width="67.46" height="540.06"/>
  <rect x="675.16" y="337.58" width="67.59" height="405.25"/>
  <rect x="742.85" y="405.21" width="67.31" height="269.91"/>
</svg>