<?xml version="1.0" encoding="UTF-8"?>
<svg id="Layer_1" data-name="Layer 1" xmlns="http://www.w3.org/2000/svg" viewBox="0 0 1080.25 1080.25">
  <rect x="170.04" y="202.71" width="67.59" height="674.93"/>
  <rect x="606.81" y="202.71" width="67.59" height="674.93"/>
  <rect x="540.12" y=".18" width="202.55" height="67.51"/>
  <rect x="843.95" y="506.51" width="405.09" height="67.51" transform="translate(506.23 1586.76) rotate(-90)"/>
  <rect x="742.67" y="67.69" width="135.03" height="67.51"/>
  <rect x="945.22" y="202.7" width="67.51" height="135.01"/>
  <rect x="877.71" y="135.2" width="67.51" height="67.51"/>
  <rect x="540.12" y="1012.52" width="472.61" height="67.51"/>
  <rect x="709.03" y="641.43" width="674.94" height="67.51" transform="translate(371.31 1721.68) rotate(-90)"/>
  <rect x="-438.72" y="506.42" width="944.97" height="67.51" transform="translate(-506.41 573.94) rotate(-90)"/>
  <rect x="0" y=".18" width="540.12" height="67.51" transform="translate(540.13 67.87) rotate(180)"/>
  <rect x="0" y="1012.52" width="540.12" height="67.51" transform="translate(540.13 2092.54) rotate(180)"/>
  <rect x="170.04" y="202.71" width="199.74" height="67.51"/>
  <rect x="170.04" y="472.6" width="199.74" height="67.51"/>
  <rect x="369.87" y="270.22" width="67.51" height="202.38"/>
  <rect x="369.87" y="540.11" width="67.51" height="337.54"/>
  <rect x="505.91" y="202.71" width="269.38" height="67.36"/>
</svg>