<?xml version="1.0" encoding="UTF-8"?>
<svg id="Layer_1" data-name="Layer 1" xmlns="http://www.w3.org/2000/svg" viewBox="0 0 1080.25 1080.25">
  <rect x="506.44" y="877.56" width="135.03" height="67.52"/>
  <rect x="506.44" y="135.06" width="135.03" height="67.52"/>
  <rect x="438.93" y="202.76" width="67.52" height="67.59"/>
  <rect x="371.41" y="269.99" width="67.52" height="67.59"/>
  <rect x="303.9" y="337.58" width="67.52" height="67.59"/>
  <rect x="438.93" y="809.61" width="67.52" height="67.59"/>
  <rect x="371.41" y="742.37" width="67.52" height="67.59"/>
  <rect x="303.9" y="674.78" width="67.52" height="67.59"/>
  <rect x="168.86" y="405.09" width="135.03" height="67.51"/>
  <rect x="101.35" y="405.09" width="67.51" height="269.7"/>
  <rect x="573.96" y="202.76" width="67.51" height="674.8"/>
  <rect x="168.86" y="607.61" width="135.03" height="67.51"/>
  <rect x="709.06" y="337.68" width="67.24" height="67.24"/>
  <rect x="844.15" y="270.17" width="67.24" height="67.24"/>
  <rect x="844.15" y="674.96" width="67.24" height="67.24"/>
  <rect x="911.66" y="337.75" width="67.24" height="337.37"/>
  <rect x="709.06" y="202.93" width="134.7" height="67.24"/>
  <rect x="709.06" y="742.54" width="134.7" height="67.24"/>
  <rect x="776.53" y="405.15" width="67.24" height="134.79"/>
  <rect x="776.53" y="540.07" width="67.24" height="67.24" transform="translate(1620.29 1147.38) rotate(180)"/>
  <rect x="709.06" y="607.54" width="67.24" height="67.24" transform="translate(1485.37 1282.31) rotate(180)"/>
</svg>