<?xml version="1.0" encoding="UTF-8"?>
<svg id="Layer_1" data-name="Layer 1" xmlns="http://www.w3.org/2000/svg" viewBox="0 0 1080.25 1080.25">
  <rect x="337.58" y=".18" width="202.55" height="67.51" transform="translate(877.71 67.87) rotate(180)"/>
  <rect x="-168.79" y="506.51" width="405.09" height="67.51" transform="translate(-506.51 574.02) rotate(-90)"/>
  <rect x="202.55" y="67.69" width="135.03" height="67.51" transform="translate(540.13 202.88) rotate(180)"/>
  <rect x="67.52" y="202.7" width="67.51" height="135.01" transform="translate(202.55 540.42) rotate(180)"/>
  <rect x="135.03" y="135.2" width="67.51" height="67.51" transform="translate(337.57 337.91) rotate(180)"/>
  <rect x="135.03" y="877.5" width="67.51" height="67.51" transform="translate(337.57 1822.51) rotate(180)"/>
  <rect x="67.52" y="742.63" width="67.51" height="134.88" transform="translate(202.55 1620.13) rotate(180)"/>
  <rect x="337.58" y="1012.52" width="202.55" height="67.51" transform="translate(877.71 2092.54) rotate(180)"/>
  <rect x="202.55" y="945.01" width="135.03" height="67.51" transform="translate(540.13 1957.53) rotate(180)"/>
  <rect x="-168.79" y="506.51" width="405.09" height="67.51" transform="translate(-506.51 574.02) rotate(-90)"/>
  <rect x="540.12" y=".18" width="202.55" height="67.51"/>
  <rect x="843.95" y="506.51" width="405.09" height="67.51" transform="translate(506.23 1586.76) rotate(-90)"/>
  <rect x="742.67" y="67.69" width="135.03" height="67.51"/>
  <rect x="945.22" y="202.7" width="67.51" height="135.01"/>
  <rect x="877.71" y="135.2" width="67.51" height="67.51"/>
  <rect x="877.71" y="877.5" width="67.51" height="67.51"/>
  <rect x="945.22" y="742.63" width="67.51" height="134.88"/>
  <rect x="540.12" y="1012.52" width="202.55" height="67.51"/>
  <rect x="742.68" y="945.01" width="135.03" height="67.51"/>
  <rect x="843.95" y="506.51" width="405.09" height="67.51" transform="translate(506.23 1586.76) rotate(-90)"/>
  <rect x="472.61" y="540.27" width="135.03" height="67.35"/>
  <rect x="472.61" y="742.81" width="135.03" height="67.35"/>
  <rect x="405.09" y="607.61" width="67.35" height="135.02"/>
  <rect x="607.73" y="607.61" width="67.35" height="135.02"/>
  <rect x="270.07" y="337.72" width="135.03" height="67.35"/>
  <rect x="675.16" y="337.72" width="135.03" height="67.35"/>
</svg>