<?xml version="1.0" encoding="UTF-8"?>
<svg id="Layer_1" data-name="Layer 1" xmlns="http://www.w3.org/2000/svg" viewBox="0 0 1080.25 1080.25">
  <rect x="810.07" y="201.83" width="135.04" height="67.51"/>
  <rect x="67.52" y="338.16" width="67.52" height="404.29"/>
  <rect x="945.22" y="338.16" width="67.52" height="404.29"/>
  <rect x="877.59" y="269.3" width="67.52" height="67.51"/>
  <rect x="405.09" y="945.06" width="268.98" height="67.51" transform="translate(1079.17 1957.62) rotate(180)"/>
  <rect x="270.06" y="877.88" width="135.03" height="67.51" transform="translate(675.16 1823.26) rotate(180)"/>
  <rect x="135.86" y="810.52" width="135.03" height="67.51" transform="translate(406.75 1688.55) rotate(180)"/>
  <rect x="135.86" y="743.05" width="67.52" height="67.51" transform="translate(339.24 1553.61) rotate(180)"/>
  <rect x="675.57" y="877.88" width="135.03" height="67.51"/>
  <rect x="405.09" y="67.18" width="268.98" height="67.51" transform="translate(1079.17 201.86) rotate(180)"/>
  <rect x="336.75" y="201.51" width="135.03" height="67.51" transform="translate(808.53 470.53) rotate(180)"/>
  <rect x="675.57" y="134.36" width="135.03" height="67.51"/>
  <rect x="135.86" y="269.3" width="67.52" height="67.51"/>
  <rect x="336.75" y="134.36" width="67.51" height="67.51"/>
  <rect x="809.77" y="810.52" width="135.03" height="67.51"/>
  <rect x="877.29" y="743.05" width="67.52" height="67.51"/>
  <rect x="270.06" y="67.2" width="66.69" height="201.82"/>
</svg>