<?xml version="1.0" encoding="UTF-8"?>
<svg id="Layer_1" data-name="Layer 1" xmlns="http://www.w3.org/2000/svg" viewBox="0 0 1080.25 1080.25">
  <rect x="810.1" y="607.46" width="67.63" height="67.54" transform="translate(202.69 1485.14) rotate(-90)"/>
  <rect x="742.68" y="675.16" width="67.63" height="67.54" transform="translate(67.56 1485.43) rotate(-90)"/>
  <rect x="675.26" y="742.87" width="67.63" height="67.54" transform="translate(-67.57 1485.72) rotate(-90)"/>
  <rect x="607.66" y="810.18" width="67.63" height="67.54" transform="translate(-202.48 1485.42) rotate(-90)"/>
  <rect x="540.14" y="877.69" width="67.63" height="67.54" transform="translate(-337.5 1485.41) rotate(-90)"/>
  <rect x="472.62" y="945.2" width="67.63" height="67.54" transform="translate(-472.53 1485.41) rotate(-90)"/>
  <rect x="371.35" y="911.44" width="67.63" height="135.05" transform="translate(-573.8 1384.13) rotate(-90)"/>
  <rect x="810.1" y="405.06" width="67.63" height="67.53" transform="translate(405.1 1282.74) rotate(-90)"/>
  <rect x="742.68" y="337.63" width="67.63" height="67.53" transform="translate(405.1 1147.89) rotate(-90)"/>
  <rect x="675.16" y="270.13" width="67.63" height="67.53" transform="translate(405.09 1012.87) rotate(-90)"/>
  <rect x="607.65" y="202.49" width="67.63" height="67.53" transform="translate(405.21 877.72) rotate(-90)"/>
  <rect x="-101.23" y="506.42" width="810.22" height="67.53" transform="translate(-236.3 844.06) rotate(-90)"/>
  <rect x="540.13" y="135.11" width="67.63" height="67.53" transform="translate(405.08 742.82) rotate(-90)"/>
  <rect x="472.62" y="67.6" width="67.63" height="67.53" transform="translate(405.07 607.8) rotate(-90)"/>
  <rect x="371.34" y="33.85" width="67.63" height="135.04" transform="translate(303.79 506.52) rotate(-90)"/>
  <rect x="877.74" y="472.56" width="67.47" height="134.94" transform="translate(1822.95 1080.05) rotate(-180)"/>
</svg>