<?xml version="1.0" encoding="UTF-8"?>
<svg id="Layer_1" data-name="Layer 1" xmlns="http://www.w3.org/2000/svg" viewBox="0 0 808.12 162.21">
  <path d="M808.11,64.77v-.02h-3.63v-17.94h0v-.02h-3.42v-7.25h0v-.02h-3.63v-10.68h0v-.02h-3.63v-3.62h0v-.02h-3.63v-7.25h0v-.02h-3.63v-3.62h0v-.02h-3.63v-3.41h0v-.02h-7.06v-3.62h0v-.02h-3.63v-3.62h0v-.02h-10.89V.02h0v-.02h-28.85v3.63h-7.06v3.63h-7.26v3.63h-3.63v3.43h-3.63v3.63h-3.63v3.63h-3.63v3.63h-3.43v7.26h-3.63v7.06h-3.63v14.53h-3.63v50.43h0v.02h3.63v14.31h0v.02h3.63v7.25h0v.02h3.63v7.25h0v.02h3.42v3.62h0v.02h3.63v3.41h0v.02h3.63v3.62h0v.02h3.63v3.62h0v.02h3.63v3.62h0v.02h7.26v3.62h0v.02h10.69v3.62h0v.02h25.22v-3.63h10.89v-3.63h3.63v-3.63h7.06v-3.63h3.63v-3.63h3.63v-7.06h3.63v-3.63h3.63v-7.26h3.63v-10.69h3.43v-18.16h3.63v-28.85h0ZM736.09,136.99v-.02h-7.26v-3.62h0v-.02h-3.42v-3.62h0v-.02h-3.63v-3.62h0v-.02h-3.63v-3.62h0v-.02h-3.63v-3.62h0v-.02h-3.63v-10.68h0v-.02h-3.63v-10.88h0v-.02h-3.63v-35.89h3.63v-10.89h3.63v-10.89h3.63v-3.43h3.63v-3.63h3.63v-3.63h3.63v-3.63h3.43v-3.63h7.26v-3.63h21.58v3.62h0v.02h10.89v3.62h0v.02h3.63v3.62h0v.02h3.63v3.62h0v.02h3.42v7.04h0v.02h3.63v3.62h0v.02h3.63v10.88h0v.02h3.63v50.42h-3.63v10.69h-3.63v3.63h-3.63v7.26h-3.43v3.63h-3.63v3.63h-3.63v3.63h-10.89v3.43h-21.58v-3.41h0Z"/>
  <polygon points="64.97 72.31 74.92 72.31 74.92 102.15 84.87 102.15 84.87 122.04 104.76 122.04 104.76 102.15 114.71 102.15 114.71 72.31 124.66 72.31 124.66 42.47 64.97 42.47 64.97 72.31"/>
  <polygon points="115.5 2.69 75.71 2.69 75.71 12.63 55.82 12.63 55.82 42.47 135.4 42.47 135.4 12.63 115.5 12.63 115.5 2.69"/>
  <polygon points="103.99 132 84.09 132 84.09 141.94 74.14 141.94 74.14 151.89 84.09 151.89 84.09 161.83 103.99 161.83 103.99 151.89 113.93 151.89 113.93 141.94 103.99 141.94 103.99 132"/>
  <polygon points="19.89 22.47 0 22.47 0 141.94 19.89 141.94 19.89 22.59 39.79 22.59 39.79 2.69 19.89 2.69 19.89 22.47"/>
  <rect x="19.81" y="142.02" width="19.81" height="19.81"/>
  <polygon points="171.32 2.69 151.42 2.69 151.42 22.59 171.32 22.59 171.32 141.94 191.21 141.94 191.21 22.47 171.32 22.47 171.32 2.69"/>
  <rect x="150.77" y="142.02" width="19.81" height="19.81"/>
  <polygon points="318.12 3.63 300.17 3.63 300.17 154.93 300.17 154.93 300.17 154.95 318.12 154.95 318.12 3.65 318.12 3.65 318.12 3.63"/>
  <polygon points="429.68 115.39 426.05 115.39 426.05 100.88 426.04 100.88 426.04 100.87 422.62 100.87 422.62 93.62 422.61 93.62 422.61 93.6 418.99 93.6 418.99 90.19 418.98 90.19 418.98 90.17 415.36 90.17 415.36 86.56 415.35 86.56 415.35 86.54 411.73 86.54 411.73 82.93 411.72 82.93 411.72 82.91 404.46 82.91 404.46 79.3 404.46 79.3 404.46 79.28 400.83 79.28 400.83 75.67 400.83 75.67 400.83 75.65 393.77 75.65 393.77 72.03 393.77 72.03 393.77 72.02 382.88 72.02 382.88 68.4 382.87 68.4 382.87 68.39 375.62 68.39 375.62 64.97 375.61 64.97 375.61 64.96 368.56 64.96 368.56 61.34 368.55 61.34 368.55 61.33 364.92 61.33 364.92 57.71 364.92 57.71 364.92 57.7 361.29 57.7 361.29 54.08 361.29 54.08 361.29 54.06 357.66 54.06 357.66 46.82 357.66 46.82 357.66 46.8 354.03 46.8 354.03 36.13 357.66 36.13 357.66 28.86 361.29 28.86 361.29 25.23 368.56 25.23 368.56 21.6 393.77 21.6 393.77 25.22 393.77 25.22 393.77 25.23 397.4 25.23 397.4 28.85 397.4 28.85 397.4 28.86 404.46 28.86 404.46 36.11 404.46 36.11 404.46 36.13 408.09 36.13 408.09 46.8 408.1 46.8 408.1 46.82 426.05 46.82 426.05 39.76 426.04 39.76 426.04 39.74 422.62 39.74 422.62 28.86 422.61 28.86 422.61 28.85 418.99 28.85 418.99 21.6 418.98 21.6 418.98 21.59 415.36 21.59 415.36 17.97 415.35 17.97 415.35 17.95 411.73 17.95 411.73 14.54 411.72 14.54 411.72 14.53 408.1 14.53 408.1 10.91 408.09 10.91 408.09 10.89 404.46 10.89 404.46 7.28 404.46 7.28 404.46 7.26 393.77 7.26 393.77 3.65 393.77 3.65 393.77 3.63 368.55 3.63 368.55 7.26 357.66 7.26 357.66 10.89 354.03 10.89 354.03 14.53 350.4 14.53 350.4 17.95 346.97 17.95 346.97 21.59 343.33 21.59 343.33 28.85 339.7 28.85 339.7 54.06 339.71 54.06 339.71 54.08 343.33 54.08 343.33 64.96 343.34 64.96 343.34 64.97 346.97 64.97 346.97 68.39 346.97 68.39 346.97 68.4 350.4 68.4 350.4 72.02 350.4 72.02 350.4 72.03 354.03 72.03 354.03 75.65 354.03 75.65 354.03 75.67 357.66 75.67 357.66 79.28 357.66 79.28 357.66 79.3 364.92 79.3 364.92 82.91 364.92 82.91 364.92 82.93 372.18 82.93 372.18 86.54 372.19 86.54 372.19 86.56 379.24 86.56 379.24 90.17 379.25 90.17 379.25 90.19 390.14 90.19 390.14 93.6 390.14 93.6 390.14 93.62 397.4 93.62 397.4 97.23 397.4 97.23 397.4 97.25 400.83 97.25 400.83 100.87 400.83 100.87 400.83 100.88 404.46 100.88 404.46 104.5 404.46 104.5 404.46 104.51 408.09 104.51 408.09 108.13 408.1 108.13 408.1 108.14 411.72 108.14 411.72 129.71 408.09 129.71 408.09 136.98 400.83 136.98 400.83 140.61 393.77 140.61 393.77 144.04 372.19 144.04 372.19 140.62 372.18 140.62 372.18 140.61 364.92 140.61 364.92 136.99 364.92 136.99 364.92 136.98 361.29 136.98 361.29 133.36 361.29 133.36 361.29 133.34 357.66 133.34 357.66 129.73 357.66 129.73 357.66 129.71 354.03 129.71 354.03 118.84 354.03 118.84 354.03 118.82 350.4 118.82 350.4 111.78 350.4 111.78 350.4 111.76 343.33 111.76 343.33 115.39 336.07 115.39 336.07 122.45 336.08 122.45 336.08 122.47 339.7 122.47 339.7 133.34 339.71 133.34 339.71 133.36 343.33 133.36 343.33 140.61 343.34 140.61 343.34 140.62 346.97 140.62 346.97 147.67 346.97 147.67 346.97 147.68 350.4 147.68 350.4 151.3 350.4 151.3 350.4 151.31 354.03 151.31 354.03 154.93 354.03 154.93 354.03 154.95 361.29 154.95 361.29 158.56 361.29 158.56 361.29 158.58 368.55 158.58 368.55 162.19 368.56 162.19 368.56 162.21 400.83 162.21 400.83 158.58 408.1 158.58 408.1 154.95 411.73 154.95 411.73 151.31 415.36 151.31 415.36 147.68 418.99 147.68 418.99 144.05 422.62 144.05 422.62 136.99 426.05 136.99 426.05 122.47 429.68 122.47 429.68 115.41 429.68 115.41 429.68 115.39"/>
  <path d="M548.69,147.67h-3.63v-10.68h0v-.02h-3.63v-10.88h0v-.02h-3.63v-14.31h0v-.02h-3.63v-10.88h0v-.02h-3.63v-10.68h0v-.02h-3.63v-10.88h0v-.02h-3.42v-14.31h0v-.02h-3.63v-10.88h0v-.02h-3.63v-10.88h0v-.02h-3.63v-10.68h0v-.02h-3.63v-10.88h0v-.02h-3.63V7.28h0v-.02h-3.63v-3.62h0v-.02h-17.95v10.89h-3.63v10.69h-3.63v10.89h-3.43v10.69h-3.63v10.89h-3.63v14.32h-3.63v10.89h-3.63v10.69h-3.63v10.89h-3.63v10.89h-3.43v14.32h-3.63v10.89h-3.63v10.69h-3.63v3.63h0v.02h17.95v-10.89h3.63v-10.69h3.63v-14.52h3.63v-7.06h54.06v3.62h0v.02h3.63v14.31h0v.02h3.42v10.88h0v.02h3.63v10.68h0v.02h3.63v3.62h0v.02h14.52v-7.26h0v-.02ZM494.64,36.11v.02h3.63v10.68h0v.02h3.42v10.88h0v.02h3.63v10.68h0v.02h3.63v14.51h0v.02h3.63v10.68h-39.53v-7.04h3.43v-10.89h3.63v-14.32h3.63v-10.89h3.63v-10.69h3.63v-10.89h3.63v7.25h0Z"/>
  <polygon points="671.14 3.63 653.19 3.63 653.19 7.26 649.56 7.26 649.56 21.59 645.92 21.59 645.92 32.48 642.5 32.48 642.5 43.17 638.86 43.17 638.86 54.06 635.23 54.06 635.23 64.96 631.6 64.96 631.6 79.28 627.97 79.28 627.97 90.17 624.34 90.17 624.34 100.87 620.71 100.87 620.71 111.76 617.28 111.76 617.28 122.45 610.02 122.45 610.02 111.78 610.02 111.78 610.02 111.76 606.39 111.76 606.39 100.88 606.39 100.88 606.39 100.87 602.76 100.87 602.76 90.19 602.75 90.19 602.75 90.17 599.13 90.17 599.13 79.3 599.12 79.3 599.12 79.28 595.5 79.28 595.5 64.97 595.49 64.97 595.49 64.96 592.07 64.96 592.07 54.08 592.06 54.08 592.06 54.06 588.44 54.06 588.44 43.19 588.43 43.19 588.43 43.17 584.81 43.17 584.81 32.49 584.8 32.49 584.8 32.48 581.17 32.48 581.17 21.6 581.17 21.6 581.17 21.59 577.54 21.59 577.54 10.91 577.54 10.91 577.54 10.89 573.91 10.89 573.91 3.65 573.91 3.65 573.91 3.63 555.95 3.63 555.95 154.93 555.96 154.93 555.96 154.95 570.28 154.95 570.28 46.82 573.91 46.82 573.91 57.7 573.91 57.7 573.91 57.71 577.54 57.71 577.54 68.39 577.54 68.39 577.54 68.4 581.17 68.4 581.17 79.28 581.17 79.28 581.17 79.3 584.8 79.3 584.8 90.17 584.81 90.17 584.81 90.19 588.43 90.19 588.43 100.87 588.44 100.87 588.44 100.88 592.06 100.88 592.06 115.39 592.07 115.39 592.07 115.41 595.49 115.41 595.49 126.08 595.5 126.08 595.5 126.1 599.12 126.1 599.12 136.98 599.13 136.98 599.13 136.99 602.75 136.99 602.75 147.67 602.76 147.67 602.76 147.68 606.39 147.68 606.39 154.93 606.39 154.93 606.39 154.95 620.71 154.95 620.71 147.68 624.34 147.68 624.34 136.99 627.98 136.99 627.98 126.1 631.61 126.1 631.61 115.41 635.24 115.41 635.24 100.88 638.87 100.88 638.87 90.19 642.5 90.19 642.5 79.3 645.93 79.3 645.93 68.4 649.56 68.4 649.56 57.71 653.19 57.71 653.19 43.19 656.82 43.19 656.82 154.93 656.82 154.93 656.82 154.95 671.15 154.95 671.15 3.65 671.14 3.65 671.14 3.63"/>
</svg>